<?xml version="1.0" encoding="utf-8"?>
<!-- Generator: Adobe Illustrator 25.3.1, SVG Export Plug-In . SVG Version: 6.00 Build 0)  -->
<svg version="1.1" id="Capa_1" xmlns="http://www.w3.org/2000/svg" xmlns:xlink="http://www.w3.org/1999/xlink" x="0px" y="0px"
	 viewBox="0 0 50 50" style="enable-background:new 0 0 50 50;" xml:space="preserve">
<style type="text/css">
	.st0{fill:#666265;}
	.st1{fill:#B5B5B5;}
	.st2{fill:#CECCCB;}
	.st3{fill:#F4992E;}
	.st4{fill:#87CCD1;}
	.st5{fill:#EF7D50;}
	.st6{fill:#E5E2E1;}
	.st7{fill:#8ACDD1;}
	.st8{fill:#B3B2B1;}
	.st9{fill:#F49934;}
	.st10{fill:#666264;}
	.st11{fill:#89CCD0;}
	.st12{fill:#F1EFF0;}
	.st13{fill:#FFD200;}
	.st14{fill:#F4982D;}
	.st15{fill:#EF7C4F;}
	.st16{fill:#00ACB5;}
	.st17{fill:#F2CA12;}
	.st18{fill:#F3B873;}
	.st19{fill:#BAE1EB;}
	.st20{fill:#909192;}
	.st21{fill:#DFDCDC;}
	.st22{fill:none;stroke:#DFDCDC;stroke-width:1.4418;stroke-linecap:round;stroke-linejoin:round;stroke-miterlimit:10;}
	.st23{fill:none;}
	.st24{fill:#E5E2E2;}
	.st25{fill:#878893;}
	.st26{fill:#919293;}
	.st27{fill:#B7DFE3;}
	.st28{fill:#B5B4B4;}
	.st29{clip-path:url(#SVGID_2_);}
	.st30{fill:#828181;}
	.st31{fill:#ED6A36;}
	.st32{fill:#F4F2F3;}
	.st33{fill:#E6E3E3;}
	.st34{fill:#FFFFFF;}
	.st35{fill:#BEBFC0;}
	.st36{fill:#DBD8D7;}
	.st37{fill:#FCC637;}
	.st38{fill:#F28F7D;}
	.st39{fill:#50494E;}
	.st40{fill:#9B9C9C;}
	.st41{fill:#EC6824;}
	.st42{fill:#F18622;}
	.st43{fill:#E73B33;}
	.st44{fill:#E62C2F;}
	.st45{fill:#87CCD1;stroke:#87CCD1;stroke-width:0.2384;stroke-miterlimit:10;}
	.st46{fill:#E99534;}
	.st47{fill:url(#SVGID_3_);}
	.st48{fill:url(#SVGID_4_);}
	.st49{fill:url(#SVGID_5_);}
	.st50{opacity:0.1;fill:#2B2123;enable-background:new    ;}
	.st51{fill:#82C3C8;}
	.st52{fill:url(#SVGID_6_);}
	.st53{fill:url(#SVGID_7_);}
	.st54{fill:url(#SVGID_8_);}
	.st55{fill:#84C3C7;}
	.st56{fill:#00A3AB;}
	.st57{fill:#D0CECE;}
	.st58{opacity:0.15;}
	.st59{fill:#393235;}
	.st60{fill:#DDDADA;}
	.st61{fill:#F1872D;}
	.st62{fill:#9CD4D8;}
	.st63{fill:#E37E18;}
	.st64{fill:#F59A20;}
</style>
<g>
	<path class="st14" d="M44.32,21.3c-0.71-0.71-0.71-1.87,0-2.58c0.14-0.14,0.14-0.37,0-0.51s-0.37-0.14-0.51,0
		c-0.71,0.71-1.87,0.71-2.59,0c-0.14-0.14-0.37-0.14-0.51,0c-0.14,0.14-0.14,0.37,0,0.51c0.71,0.71,0.71,1.87,0,2.58
		c-0.14,0.14-0.14,0.37,0,0.51c0.14,0.14,0.37,0.14,0.51,0c0.71-0.71,1.87-0.71,2.58,0c0.14,0.14,0.37,0.14,0.51,0
		C44.47,21.67,44.47,21.44,44.32,21.3z"/>
	<path class="st14" d="M32.34,8.96c-1.01,0-1.83-0.82-1.83-1.83c0-0.2-0.16-0.36-0.36-0.36c-0.2,0-0.36,0.16-0.36,0.36
		c0,1.01-0.82,1.83-1.83,1.83c-0.2,0-0.36,0.16-0.36,0.36c0,0.2,0.16,0.36,0.36,0.36c1.01,0,1.83,0.82,1.83,1.82
		c0,0.2,0.16,0.36,0.36,0.36c0.2,0,0.36-0.16,0.36-0.36c0-1.01,0.82-1.82,1.83-1.82c0.2,0,0.36-0.16,0.36-0.36
		C32.71,9.12,32.54,8.96,32.34,8.96z"/>
	<path class="st4" d="M35.59,13.69c0.4-0.4,1.05-0.4,1.45,0c0.08,0.08,0.21,0.08,0.29,0c0.08-0.08,0.08-0.21,0-0.29
		c-0.4-0.4-0.4-1.05,0-1.45c0.08-0.08,0.08-0.21,0-0.29s-0.21-0.08-0.29,0c-0.4,0.4-1.05,0.4-1.45,0c-0.08-0.08-0.21-0.08-0.29,0
		c-0.08,0.08-0.08,0.21,0,0.29c0.4,0.4,0.4,1.05,0,1.44c-0.08,0.08-0.08,0.21,0,0.29S35.51,13.77,35.59,13.69z"/>
	<path class="st4" d="M28.82,16.79c-0.4-0.4-0.4-1.05,0-1.45c0.08-0.08,0.08-0.21,0-0.29s-0.21-0.08-0.29,0
		c-0.4,0.4-1.05,0.4-1.45,0c-0.08-0.08-0.21-0.08-0.29,0c-0.08,0.08-0.08,0.21,0,0.29c0.4,0.4,0.4,1.05,0,1.45
		c-0.08,0.08-0.08,0.21,0,0.29c0.08,0.08,0.21,0.08,0.29,0c0.4-0.4,1.05-0.4,1.44,0c0.08,0.08,0.21,0.08,0.29,0
		C28.9,17,28.9,16.87,28.82,16.79z"/>
	<circle class="st15" cx="34.57" cy="20.01" r="3.46"/>
	<g>
		<path class="st16" d="M32.23,33.51c1.32-1.78-6.59-0.91-11.22-5.53c-4.63-4.63-4.99-11.24-5.53-11.22
			C14.93,16.78,3.26,44.35,3.26,44.35c-0.17,0.4-0.09,0.86,0.22,1.16c0.31,0.31,0.77,0.39,1.16,0.22
			C4.64,45.73,31.22,34.88,32.23,33.51z"/>
	</g>
	<g>
		<path class="st4" d="M15.33,41.29c1.05-0.44,2.12-0.89,3.19-1.35c-1.68-1.83-3.44-4.44-4.94-7.51c-1.09-2.23-1.91-4.42-2.44-6.39
			c-0.66,1.5-1.34,3.08-2.03,4.66c0.4,1.05,0.87,2.14,1.41,3.24C11.98,36.92,13.68,39.47,15.33,41.29z"/>
		<path class="st4" d="M31.11,34.24c-0.65-0.67-1.3-1.46-1.96-2.36c-1.48-0.35-3.28-0.83-5.01-1.7c1.28,2.23,2.67,4.12,4,5.51
			C29.37,35.13,30.39,34.63,31.11,34.24z"/>
		<path class="st4" d="M12.1,42.65c-1.6-1.81-3.25-4.31-4.67-7.21c-0.07-0.14-0.13-0.27-0.19-0.4c-0.62,1.45-1.21,2.82-1.73,4.04
			c1.08,1.91,2.25,3.58,3.39,4.9C9.86,43.58,10.94,43.13,12.1,42.65z"/>
		<path class="st4" d="M16.66,30.92c1.54,3.14,3.34,5.8,5.06,7.64c1.13-0.49,2.22-0.97,3.26-1.43c-1.75-1.84-3.6-4.55-5.17-7.75
			c-1.37-2.79-2.31-5.52-2.78-7.84c-1-2.68-1.25-4.79-1.56-4.78c-0.13,0-0.87,1.53-1.93,3.85C13.7,23.32,14.77,27.06,16.66,30.92z"
			/>
		<path class="st4" d="M3.86,42.93c-0.38,0.89-0.6,1.42-0.6,1.42c-0.17,0.4-0.09,0.86,0.22,1.16c0.31,0.31,0.77,0.39,1.16,0.22
			c0,0,0.37-0.15,1.01-0.41C5.06,44.61,4.46,43.81,3.86,42.93z"/>
	</g>
	
		<ellipse transform="matrix(0.7071 -0.7071 0.7071 0.7071 -10.7885 24.2313)" class="st36" cx="23.86" cy="25.14" rx="4.02" ry="11.85"/>
	<path class="st4" d="M20.55,22.4c-0.27,0-0.51-0.2-0.55-0.48c-0.01-0.09-0.27-2.3,2.36-5.38c0.4-0.46,0.79-1.07,0.85-1.72
		c-1.21,0.6-2.62,0.69-3.59,0.34c-0.9-0.32-1.42-0.99-1.44-1.83c-0.01-0.96,0.49-1.67,1.4-1.94c1.39-0.43,3.34,0.31,4.23,1.58
		c0.81-1,0.81-2.39,0-4.04c-0.22,0.2-0.46,0.38-0.72,0.53c-1.24,0.74-2.64,0.83-3.77,0.23c-0.92-0.49-1.39-1.34-1.24-2.27
		c0.17-1.09,1.1-1.99,2.27-2.19c0.64-0.11,2.15-0.12,3.58,1.76c0.34-0.65,0.52-1.42,0.52-2.26c0-0.31,0.25-0.56,0.56-0.56
		s0.56,0.25,0.56,0.56c0,1.24-0.35,2.38-0.97,3.29c1.67,3.04,0.73,4.89,0.02,5.72c-0.1,0.12-0.21,0.23-0.32,0.34
		c0.16,0.81,0.01,1.9-1.08,3.18c-2.28,2.66-2.11,4.5-2.11,4.51c0.03,0.3-0.18,0.58-0.49,0.62C20.59,22.4,20.57,22.4,20.55,22.4z
		 M20.44,12.38c-0.19,0-0.37,0.02-0.53,0.07c-0.42,0.13-0.62,0.4-0.61,0.86c0.01,0.37,0.24,0.64,0.7,0.8
		c0.8,0.29,2.01,0.16,2.96-0.41c-0.01-0.02-0.02-0.03-0.03-0.05C22.39,12.84,21.29,12.38,20.44,12.38z M20.84,6.31
		c-0.1,0-0.2,0.01-0.31,0.03C19.86,6.45,19.27,7,19.18,7.6c-0.07,0.46,0.16,0.84,0.66,1.11c0.76,0.41,1.79,0.33,2.67-0.2
		c0.27-0.16,0.51-0.35,0.72-0.56C22.51,6.88,21.67,6.31,20.84,6.31z"/>
	<path class="st4" d="M37.45,34.88c-0.99,0-2.07-0.58-2.58-1.97c-0.63-1.72-0.23-3.94,0.96-5.4c-0.78-0.49-1.65-0.79-2.58-0.77
		c-2.99,0.05-5.13,3.27-5.15,3.31c-0.17,0.26-0.51,0.33-0.77,0.16c-0.26-0.17-0.33-0.51-0.16-0.77c0.1-0.15,2.48-3.75,6.06-3.81
		c1.26-0.01,2.42,0.41,3.42,1.09c1.25-0.95,2.93-1.2,4.81-0.7c1.91,0.51,3.3,0.38,3.91-0.37c0.47-0.58,0.37-1.38,0.26-1.61
		c-0.14-0.28-0.03-0.61,0.25-0.75c0.27-0.14,0.61-0.03,0.75,0.25c0.3,0.6,0.38,1.87-0.39,2.82c-0.64,0.78-2.03,1.55-5.06,0.74
		c-1.44-0.38-2.67-0.26-3.62,0.36c1.46,1.37,2.38,3.24,2.41,4.7c0.04,1.58-0.99,2.49-2.03,2.69C37.77,34.86,37.61,34.88,37.45,34.88
		z M36.71,28.18c-1.08,1.3-1.22,3.19-0.8,4.35c0.39,1.07,1.21,1.33,1.8,1.21c0.54-0.1,1.15-0.57,1.13-1.57
		C38.81,30.93,37.98,29.32,36.71,28.18z"/>
	<circle class="st14" cx="27.83" cy="23.05" r="2.32"/>
</g>
</svg>
